<svg width="536" height="356" viewBox="0 0 536 356" fill="none" xmlns="http://www.w3.org/2000/svg">
<g clip-path="url(#clip0_127_3)">
<path d="M271.533 100.057C266.754 92.1512 261.091 83.7096 252.222 81.128C241.951 78.1383 231.4 84.0774 222.45 89.9381C195.686 107.466 169.912 126.46 145.245 146.835L145.272 147.142C164.476 145.818 183.68 144.493 202.884 143.168C216.759 142.211 231.11 141.122 243.372 134.557C248.024 132.066 252.56 128.738 257.832 128.506C264.383 128.218 270.095 132.794 274.583 137.575C301.134 165.855 308.818 209.102 338.605 233.948C319.822 187.614 297.394 142.844 271.533 100.057Z" fill="#F2F2F2"/>
<path d="M434.74 339.923C431.803 336.215 430.604 335.346 427.707 331.604C404.125 301.096 381.96 269.559 361.211 236.991C347.118 214.872 333.724 192.328 321.028 169.359C314.984 158.44 309.106 147.434 303.393 136.343C298.96 127.744 294.626 119.093 290.391 110.39C289.18 107.905 288.003 105.408 286.832 102.905C284.073 97.0194 281.365 91.1054 278.457 85.2999C275.144 78.6831 271.111 71.7462 265.026 67.3007C262.258 65.1945 258.947 63.9202 255.48 63.6266C250.528 63.3066 245.957 65.3522 241.661 67.5864C210.23 83.98 180.804 104.533 154.189 127.921C127.505 151.361 103.654 177.843 83.1223 206.826C82.4941 207.723 81.0087 206.866 81.6428 205.963C84.1393 202.432 86.6853 198.939 89.2807 195.484C121.553 152.552 161.125 115.633 206.185 86.4141C213.766 81.5001 221.49 76.8165 229.356 72.3633C233.321 70.1177 237.303 67.9006 241.353 65.8208C245.323 63.7808 249.539 61.9466 254.075 61.8781C269.511 61.6381 277.503 79.123 282.993 90.8883C284.718 94.5909 286.464 98.2822 288.231 101.962C294.91 115.933 301.845 129.776 309.037 143.492C313.476 151.96 318.012 160.379 322.645 168.748C337.064 194.81 352.389 220.344 368.621 245.35C390.124 278.475 411.455 307.736 435.951 338.712C436.625 339.569 435.42 340.792 434.74 339.923Z" fill="#E4E4E4"/>
<path d="M152.663 119.287C151.766 118.287 150.875 117.287 149.972 116.287C142.854 108.413 135.217 100.631 125.442 96.1166C120.781 93.8963 115.694 92.7167 110.532 92.6596C105.196 92.6768 99.9804 94.0767 95.0505 96.0366C92.7196 96.968 90.4401 98.0251 88.1952 99.1507C85.6301 100.442 83.1107 101.819 80.603 103.208C75.8956 105.813 71.2493 108.533 66.664 111.367C57.5407 117.007 48.7031 123.077 40.1512 129.578C35.718 132.949 31.3763 136.431 27.1261 140.023C23.173 143.36 19.2998 146.787 15.5065 150.303C14.6954 151.051 13.4842 149.84 14.2954 149.092C15.2951 148.16 16.3063 147.234 17.3174 146.32C20.1738 143.737 23.0759 141.204 26.0237 138.721C31.3992 134.184 36.9139 129.822 42.5677 125.635C51.3596 119.121 60.4543 113.049 69.8515 107.419C74.5475 104.608 79.3081 101.914 84.1333 99.3393C85.5902 98.5622 87.0641 97.8023 88.555 97.0823C91.9381 95.3754 95.4533 93.9442 99.0664 92.8025C104.184 91.1464 109.6 90.6143 114.942 91.2425C120.1 91.993 125.07 93.7127 129.589 96.3109C139.187 101.676 146.63 109.973 153.874 118.07C154.605 118.893 153.4 120.11 152.663 119.287Z" fill="#E4E4E4"/>
<path d="M349.308 200.882L372.305 192.469L383.724 188.291C387.443 186.931 391.152 185.382 394.997 184.408C398.337 183.454 401.885 183.499 405.2 184.538C408.157 185.633 410.863 187.311 413.158 189.473C415.503 191.632 417.685 193.963 419.686 196.445C422.172 199.433 424.621 202.453 427.081 205.463C437.235 217.883 447.323 230.358 457.344 242.887C467.365 255.415 477.319 267.997 487.206 280.632C497.117 293.297 506.96 306.016 516.735 318.788C517.932 320.352 519.128 321.918 520.324 323.484C520.984 324.349 522.473 323.496 521.804 322.619C511.957 309.718 502.041 296.871 492.057 284.077C482.048 271.252 471.97 258.481 461.823 245.765C451.677 233.049 441.461 220.388 431.177 207.782C428.615 204.642 426.049 201.505 423.479 198.371C421.31 195.728 419.166 193.056 416.788 190.596C412.423 186.08 406.969 182.089 400.44 181.981C396.601 181.917 392.887 183.135 389.32 184.426C385.475 185.817 381.64 187.234 377.8 188.639L354.642 197.111L348.852 199.229C347.825 199.605 348.269 201.262 349.308 200.882Z" fill="#E4E4E4"/>
<path d="M122.416 106.024C110.729 100.017 95.7621 101.193 85.0227 108.699C105.507 112.234 125.768 116.964 145.7 122.864C137.423 118.012 130.948 110.411 122.416 106.024Z" fill="#F2F2F2"/>
<path d="M84.9078 108.678L82.658 110.508C83.419 109.867 84.2101 109.267 85.0229 108.699C84.9845 108.693 84.9462 108.685 84.9078 108.678Z" fill="#F2F2F2"/>
<path d="M412.293 200.966C410.029 198.21 407.581 195.324 404.195 194.204L401.034 194.329C425.099 236.863 457.6 274.029 496.544 303.545C468.46 269.352 440.376 235.159 412.293 200.966Z" fill="#F2F2F2"/>
<path d="M215.707 178.228C217.17 183.545 220.466 188.172 225.011 191.292C226.769 192.489 228.848 193.637 229.449 195.677C229.765 196.977 229.571 198.349 228.905 199.51C228.24 200.656 227.432 201.712 226.499 202.652L226.413 202.972C222.052 200.386 217.903 197.117 215.494 192.655C213.085 188.194 212.749 182.346 215.707 178.228Z" fill="#F2F2F2"/>
<path d="M360.903 304.76C362.366 310.076 365.662 314.703 370.208 317.823C371.965 319.02 374.045 320.168 374.646 322.208C374.962 323.508 374.767 324.88 374.101 326.041C373.437 327.187 372.628 328.243 371.695 329.184L371.61 329.503C367.249 326.918 363.1 323.648 360.691 319.186C358.282 314.725 357.945 308.877 360.903 304.76Z" fill="#F2F2F2"/>
<path d="M71.1336 296.033C72.5965 301.35 75.8924 305.977 80.4381 309.097C82.1955 310.294 84.2747 311.442 84.8759 313.482C85.1922 314.782 84.9973 316.154 84.3315 317.315C83.6669 318.461 82.8583 319.517 81.9254 320.457L81.8402 320.776C77.479 318.191 73.3301 314.921 70.921 310.46C68.5119 305.999 68.1756 300.151 71.1336 296.033Z" fill="#F2F2F2"/>
<path d="M404.586 63.5772C422.139 63.5772 436.368 49.345 436.368 31.7886C436.368 14.2322 422.139 0 404.586 0C387.034 0 372.805 14.2322 372.805 31.7886C372.805 49.345 387.034 63.5772 404.586 63.5772Z" fill="#7C3AED"/>
<path d="M461.939 7.3989C446.537 5.31647 428.952 13.6436 424.96 28.6683C423.954 25.9969 422.125 23.7146 419.737 22.151C417.349 20.5875 414.526 19.8237 411.676 19.97C408.826 20.1163 406.096 21.1651 403.881 22.9649C401.665 24.7647 400.079 27.2223 399.352 29.9827L401.115 31.2459C434.123 38.3854 468.29 38.2309 501.232 30.7932C490.518 19.5307 477.342 9.48129 461.939 7.3989Z" fill="#F0F0F0"/>
<path d="M395.884 49.7837C380.481 47.7012 362.897 56.0284 358.905 71.0531C357.899 68.3817 356.07 66.0994 353.682 64.5358C351.294 62.9723 348.471 62.2085 345.621 62.3548C342.771 62.501 340.041 63.5499 337.825 65.3497C335.61 67.1495 334.024 69.6071 333.297 72.3674L335.06 73.6307C368.067 80.7702 402.235 80.6157 435.176 73.1779C424.463 61.9155 411.286 51.8661 395.884 49.7837Z" fill="#F0F0F0"/>
<path d="M530.317 57.7981C530.253 57.7982 530.189 57.7883 530.129 57.7688C365.361 5.64914 220.141 12.4647 127.33 27.3601C114.699 29.3865 102.035 31.7269 89.6888 34.3169C86.5367 34.9774 83.2667 35.6853 79.9695 36.4224C76.0319 37.2996 72.1465 38.2029 68.421 39.1062C66.812 39.4872 65.2344 39.8713 63.6882 40.2585C61.3462 40.8367 58.9698 41.4393 56.4224 42.1016C53.5759 42.8357 50.6837 43.6057 47.8244 44.3903C47.8139 44.394 47.8033 44.397 47.7925 44.3994L47.7928 44.4C44.5632 45.282 41.3506 46.1896 38.2439 47.0959C36.5625 47.5817 34.9389 48.0607 33.3837 48.5337C33.21 48.5818 33.056 48.628 32.8999 48.6755L32.5658 48.7772C32.3723 48.8362 32.1812 48.894 31.9901 48.9488L31.9779 48.9525L31.9782 48.9531L31.4725 49.1102C30.8694 49.2928 30.281 49.4711 29.7022 49.6489C14.4068 54.3651 5.99839 57.7202 5.91533 57.7531C5.83937 57.7835 5.75816 57.7987 5.67633 57.7978C5.59449 57.7968 5.51365 57.7798 5.43841 57.7476C5.36317 57.7154 5.29499 57.6687 5.23779 57.6102C5.1806 57.5516 5.13548 57.4824 5.10503 57.4064C5.07459 57.3304 5.05941 57.2492 5.06034 57.1673C5.06128 57.0855 5.07833 57.0046 5.11051 56.9294C5.14269 56.8541 5.18938 56.7859 5.2479 56.7287C5.30643 56.6715 5.37565 56.6264 5.45161 56.5959C5.53528 56.5631 13.9848 53.1909 29.3359 48.457C29.9168 48.2787 30.5068 48.1003 31.1117 47.9171L31.5815 47.771C31.5976 47.7649 31.6137 47.7601 31.6301 47.7552C31.8203 47.701 32.0102 47.6432 32.2031 47.5848L32.5378 47.4831C32.7045 47.4326 32.8688 47.3827 33.0371 47.3364C34.5816 46.8665 36.2107 46.3862 37.8964 45.8987C41.0043 44.9917 44.2199 44.0842 47.452 43.2009C47.462 43.1973 47.4724 43.1948 47.4824 43.1918C50.3517 42.4048 53.2546 41.6311 56.1102 40.8946C58.6616 40.2317 61.0425 39.6279 63.3885 39.0484C64.9412 38.6619 66.5219 38.277 68.1304 37.8937C71.8602 36.9892 75.7534 36.0846 79.6981 35.2057C83.0004 34.4679 86.276 33.7582 89.4332 33.0972C101.799 30.5029 114.483 28.1588 127.133 26.1294C220.076 11.2127 365.504 4.38608 530.504 56.5807C530.646 56.6254 530.767 56.7196 530.846 56.8459C530.924 56.9723 530.955 57.1227 530.932 57.2698C530.91 57.4168 530.835 57.551 530.722 57.6479C530.609 57.7448 530.465 57.798 530.317 57.7981Z" fill="#CCCCCC"/>
<path d="M163.884 261.689C163.668 261.058 163.305 260.487 162.825 260.025C162.648 259.86 162.456 259.712 162.252 259.582C160.625 258.498 158.195 258.254 156.649 259.582C156.494 259.717 156.35 259.865 156.219 260.025C155.758 260.592 155.285 261.147 154.799 261.689C154.001 262.599 153.185 263.478 152.331 264.332C152.088 264.569 151.845 264.812 151.596 265.048C151.452 265.192 151.309 265.329 151.166 265.466C150.617 265.99 150.056 266.495 149.489 266.993C149.19 267.261 148.891 267.523 148.586 267.779C148.131 268.159 147.676 268.539 147.215 268.907C147.171 268.938 147.127 268.969 147.084 269.006C147.071 269.013 147.065 269.025 147.053 269.031C147.046 269.031 147.04 269.031 147.034 269.044C147.017 269.051 147.002 269.061 146.99 269.075C146.853 269.169 146.76 269.231 146.691 269.287C146.716 269.275 146.741 269.256 146.766 269.243C146.654 269.331 146.535 269.418 146.423 269.505C145.333 270.309 144.217 271.082 143.077 271.805C140.255 273.611 137.292 275.185 134.216 276.511C134.01 276.592 133.798 276.679 133.586 276.76C125.532 280.061 116.794 281.349 108.13 280.513C107.245 280.444 106.36 280.351 105.475 280.232C104.453 280.083 103.438 279.902 102.428 279.696C98.5849 278.929 94.8244 277.794 91.1988 276.305C86.6635 274.228 82.3501 271.697 78.3243 268.751C77.7011 268.308 77.0718 267.866 76.4424 267.436C77.159 265.678 77.8632 263.92 78.5487 262.15C78.8914 261.296 79.2217 260.442 79.5457 259.582C82.0944 252.956 84.4874 246.268 86.7806 239.555C89.0988 232.755 91.2861 225.915 93.3425 219.036C93.5544 218.338 93.76 217.64 93.9594 216.942C95.0375 213.308 96.0719 209.666 97.0628 206.015C97.1562 205.66 97.2559 205.311 97.3432 204.956C97.6298 203.908 97.9102 202.861 98.1845 201.814C98.8076 199.452 97.3993 196.628 94.9191 196.061C93.7249 195.755 92.4586 195.924 91.3868 196.533C90.315 197.143 89.5215 198.144 89.1735 199.327C88.9056 200.337 88.6376 201.34 88.3634 202.35C87.0486 207.231 85.6651 212.094 84.2132 216.942C84.0013 217.64 83.7894 218.338 83.5776 219.036C80.3745 229.595 76.8578 240.048 73.0274 250.395C72.5663 251.647 72.0989 252.896 71.6253 254.141C71.3948 254.751 71.1642 255.362 70.9274 255.973C70.4725 257.176 70.0051 258.379 69.5378 259.582C69.2698 260.286 68.9956 260.991 68.7214 261.689C68.5407 262.131 68.3662 262.574 68.1917 263.01C66.415 262.372 64.5742 261.929 62.7017 261.689L62.4026 261.651C60.9509 261.477 59.4827 261.489 58.0342 261.689C55.8663 261.942 53.7804 262.668 51.9239 263.816C50.0675 264.964 48.4859 266.506 47.2909 268.333C44.3184 273.014 44.3558 279.709 48.5248 283.685C52.8183 287.78 59.3179 287.749 64.3718 285.188C67.05 283.738 69.3082 281.621 70.9274 279.042C71.5477 278.107 72.1177 277.139 72.6349 276.143C72.7657 276.231 72.8966 276.318 73.0274 276.411C73.526 276.76 74.0245 277.116 74.5168 277.465C77.3852 279.543 80.408 281.4 83.5589 283.018C90.3338 286.387 97.6267 288.593 105.133 289.544C105.301 289.563 105.463 289.588 105.631 289.607C106.46 289.713 107.295 289.794 108.13 289.862C120.109 290.765 132.102 288.313 142.765 282.782C143.669 282.314 144.564 281.824 145.451 281.311C146.828 280.513 148.174 279.665 149.489 278.767C150.206 278.281 150.904 277.789 151.596 277.272C154.618 275.045 157.436 272.552 160.014 269.823C160.993 268.795 161.93 267.733 162.825 266.638C163.672 265.742 164.159 264.566 164.196 263.334C164.191 262.772 164.085 262.214 163.884 261.689ZM60.6951 276.536C60.826 276.443 60.9568 276.343 61.0815 276.243C61.0441 276.337 60.8633 276.443 60.6951 276.536ZM62.6954 274.523C62.5521 274.685 62.4212 274.847 62.2779 275.009C61.8419 275.497 61.3735 275.955 60.8758 276.38C60.8073 276.443 60.7325 276.505 60.6577 276.561C60.6569 276.561 60.6561 276.561 60.6553 276.561C60.6545 276.562 60.6539 276.562 60.6533 276.563C60.6527 276.563 60.6522 276.564 60.6519 276.565C60.6516 276.566 60.6515 276.566 60.6515 276.567C60.5615 276.607 60.474 276.653 60.3897 276.704C60.1218 276.866 59.8476 277.016 59.5672 277.153C59.0181 277.355 58.4533 277.512 57.8784 277.621C57.4367 277.653 56.9934 277.657 56.5511 277.633H56.5386C56.2334 277.565 55.9318 277.482 55.635 277.384C55.4855 277.309 55.3422 277.222 55.1988 277.134C55.1427 277.085 55.0929 277.035 55.0617 277.003C55.0009 276.948 54.9446 276.887 54.8935 276.823C54.8935 276.822 54.8934 276.821 54.8931 276.82C54.8928 276.82 54.8923 276.819 54.8917 276.818C54.8912 276.818 54.8904 276.817 54.8897 276.817C54.8889 276.817 54.8881 276.816 54.8873 276.817C54.8187 276.692 54.7439 276.567 54.6754 276.442C54.6719 276.439 54.6696 276.435 54.6692 276.43C54.6193 276.274 54.5757 276.112 54.5383 275.95C54.5248 275.666 54.5269 275.38 54.5445 275.096C54.6282 274.698 54.7406 274.306 54.881 273.924C55.0072 273.654 55.1508 273.391 55.311 273.139C55.3235 273.114 55.3858 273.014 55.4544 272.902C55.4606 272.896 55.4606 272.896 55.4606 272.89C55.5541 272.784 55.6475 272.672 55.7472 272.572C55.9155 272.385 56.0962 272.223 56.2769 272.054C56.6284 271.824 56.9925 271.614 57.3675 271.425C57.9624 271.214 58.5728 271.049 59.1933 270.932C60.1083 270.86 61.0279 270.868 61.9415 270.957C62.8067 271.108 63.6604 271.318 64.4964 271.587C63.9897 272.57 63.4129 273.516 62.7703 274.417C62.7453 274.454 62.7204 274.492 62.6954 274.523ZM55.7659 272.472C55.711 272.56 55.6462 272.642 55.5727 272.715C55.6222 272.623 55.6876 272.541 55.7659 272.472Z" fill="#3F3D56"/>
<path d="M145.152 198.031C145.096 199.988 145.04 201.945 144.984 203.902C144.865 208.247 144.743 212.593 144.616 216.942C144.485 221.835 144.348 226.725 144.205 231.614C144.136 234.139 144.066 236.663 143.993 239.187C143.8 245.988 143.609 252.786 143.42 259.582C143.401 260.286 143.376 260.984 143.357 261.689C143.264 265.061 143.17 268.433 143.077 271.805C142.971 275.464 142.867 279.123 142.765 282.781C142.691 285.524 142.614 288.269 142.535 291.015C141.974 310.917 141.413 330.82 140.852 350.722C140.829 351.954 140.329 353.13 139.457 354.001C138.586 354.873 137.411 355.373 136.179 355.397C134.942 355.387 133.759 354.891 132.885 354.016C132.01 353.142 131.515 351.959 131.505 350.722C131.816 339.527 132.132 328.333 132.452 317.138C132.733 307.016 133.017 296.893 133.306 286.771C133.399 283.436 133.493 280.099 133.586 276.76C133.73 271.736 133.871 266.713 134.01 261.689C134.029 260.984 134.054 260.286 134.072 259.582C134.085 258.965 134.103 258.354 134.122 257.737C134.396 247.982 134.671 238.225 134.945 228.467C135.057 224.627 135.165 220.785 135.269 216.942C135.393 212.56 135.518 208.18 135.643 203.802C135.699 201.876 135.749 199.957 135.805 198.031C135.828 196.798 136.328 195.623 137.2 194.751C138.071 193.88 139.246 193.379 140.478 193.356C141.715 193.366 142.898 193.861 143.772 194.736C144.647 195.61 145.142 196.794 145.152 198.031Z" fill="#3F3D56"/>
<path d="M401.538 199.328C396.637 217.89 390.78 236.186 383.989 254.142C382.115 259.095 380.198 264.038 378.149 268.922L378.62 267.805C377.706 270.131 376.538 272.349 375.137 274.42C375.042 274.553 374.945 274.685 374.846 274.816C375.33 274.197 375.422 274.075 375.122 274.449C374.964 274.637 374.808 274.824 374.644 275.007C374.208 275.496 373.74 275.954 373.242 276.381C373.117 276.488 372.99 276.592 372.861 276.695L373.446 276.241C373.378 276.4 372.902 276.613 372.753 276.704C372.273 276.993 371.772 277.247 371.255 277.463L372.371 276.992C371.523 277.334 370.638 277.576 369.735 277.715L370.977 277.548C370.089 277.671 369.189 277.681 368.299 277.577L369.541 277.744C368.813 277.644 368.1 277.452 367.419 277.172L368.536 277.644C368.173 277.485 367.823 277.299 367.49 277.085C367.321 276.975 366.801 276.581 367.48 277.1C368.187 277.64 367.571 277.147 367.426 277.003C367.305 276.884 367.195 276.754 367.077 276.632C366.527 276.069 367.698 277.603 367.324 276.943C367.125 276.613 366.942 276.272 366.777 275.923L367.248 277.04C367.034 276.508 366.882 275.954 366.794 275.387L366.961 276.63C366.872 275.925 366.872 275.212 366.959 274.507L366.793 275.75C366.907 274.964 367.115 274.193 367.412 273.456L366.941 274.573C367.149 274.077 367.394 273.598 367.675 273.14C367.805 272.904 367.957 272.68 368.129 272.473C368.16 272.483 367.339 273.416 367.775 272.944C367.889 272.821 367.995 272.691 368.11 272.569C368.295 272.374 368.493 272.195 368.687 272.01C369.338 271.39 367.776 272.612 368.527 272.121C369.072 271.763 369.645 271.451 370.241 271.187L369.124 271.658C370.122 271.248 371.168 270.967 372.237 270.823L370.995 270.99C372.333 270.836 373.686 270.852 375.021 271.037L373.778 270.871C375.468 271.127 377.12 271.592 378.696 272.254L377.58 271.783C380.938 273.225 383.913 275.366 386.882 277.466C389.75 279.544 392.772 281.399 395.922 283.018C402.697 286.387 409.99 288.594 417.497 289.546C428.262 290.865 439.187 289.459 449.267 285.456C459.348 281.454 468.262 274.983 475.193 266.638C476.038 265.741 476.525 264.565 476.562 263.333C476.553 262.095 476.062 260.909 475.193 260.027C473.478 258.453 470.239 258.008 468.583 260.027C467.014 261.944 465.327 263.76 463.531 265.467C462.693 266.262 461.833 267.033 460.95 267.779C460.446 268.205 459.935 268.623 459.416 269.033C459.171 269.226 458.408 269.742 459.58 268.91C459.312 269.1 459.054 269.309 458.789 269.505C454.864 272.399 450.611 274.818 446.118 276.713L447.235 276.242C442.414 278.265 437.351 279.652 432.172 280.37L433.415 280.203C428.088 280.904 422.691 280.896 417.366 280.179L418.609 280.346C413.285 279.615 408.078 278.196 403.119 276.126L404.235 276.597C399.449 274.479 394.908 271.848 390.69 268.749C388.495 267.123 386.18 265.666 383.765 264.39C380.951 262.952 377.905 262.026 374.768 261.654C368.886 260.962 362.892 263.253 359.658 268.336C356.682 273.014 356.721 279.708 360.888 283.685C365.18 287.782 371.68 287.747 376.739 285.185C381.61 282.717 384.536 277.59 386.594 272.755C391.225 261.875 395.325 250.744 399.144 239.556C402.923 228.487 406.35 217.306 409.426 206.014C409.806 204.615 410.182 203.215 410.551 201.813C411.175 199.452 409.766 196.627 407.287 196.063C406.093 195.755 404.825 195.924 403.753 196.533C402.68 197.142 401.886 198.144 401.538 199.328Z" fill="#3F3D56"/>
<path d="M448.171 198.03L446.488 257.739L444.815 317.136L443.869 350.722C443.879 351.959 444.375 353.142 445.249 354.016C446.123 354.89 447.306 355.386 448.542 355.397C449.774 355.373 450.949 354.873 451.821 354.001C452.692 353.13 453.192 351.955 453.216 350.722L454.898 291.014L456.572 231.616L457.518 198.03C457.508 196.794 457.012 195.611 456.138 194.736C455.263 193.862 454.081 193.366 452.844 193.355C451.612 193.379 450.437 193.879 449.566 194.751C448.695 195.623 448.194 196.798 448.171 198.03Z" fill="#3F3D56"/>
<path opacity="0.2" d="M286.399 334.052H287.851V267.955H321.706V266.507H287.851V238.618H313.996C313.612 238.13 313.218 237.649 312.812 237.174H287.851V218.753C287.37 218.548 286.887 218.351 286.399 218.165V237.174H257.951V213.572C257.463 213.594 256.983 213.628 256.499 213.669V237.174H233.804V219.565C233.316 219.78 232.836 220.007 232.36 220.246V237.174H213.281V238.618H232.36V266.507H213.281V267.955H232.36V334.052H233.804V267.955C236.784 267.954 239.736 268.541 242.49 269.682C245.244 270.822 247.746 272.495 249.853 274.603C251.961 276.711 253.633 279.214 254.773 281.968C255.913 284.722 256.5 287.675 256.499 290.656V334.052H257.951V267.955H286.399V334.052ZM233.804 266.507V238.618H256.499V266.507H233.804ZM257.951 266.507V238.618H258.52C262.181 238.618 265.807 239.34 269.19 240.741C272.572 242.143 275.646 244.197 278.234 246.787C280.823 249.377 282.877 252.451 284.278 255.835C285.679 259.219 286.4 262.845 286.399 266.507H257.951Z" fill="black"/>
<path d="M277.536 314.234C275.709 322.386 271.333 329.743 265.042 335.239C264.581 335.638 264.12 336.024 263.64 336.405C262.474 336.511 261.317 336.619 260.169 336.729C259.215 336.816 258.274 336.909 257.34 336.997L257.171 337.015L257.053 335.993L256.579 331.854C254.742 328.854 253.603 325.479 253.247 321.979C252.891 318.479 253.327 314.943 254.523 311.634C256.168 307.196 259.147 303.276 262.076 299.386C266.12 294.013 270.052 288.703 270.195 282.152C272.185 284.699 273.84 287.492 275.118 290.461C273.912 291.029 272.828 291.827 271.928 292.81C271.672 293.091 271.417 293.484 271.591 293.82C271.741 294.107 272.115 294.176 272.439 294.213C273.218 294.294 274.003 294.375 274.782 294.456C275.405 294.525 276.028 294.587 276.651 294.655C277.405 297.131 277.917 299.673 278.178 302.247C278.598 306.252 278.381 310.297 277.536 314.234Z" fill="#3F3D56"/>
<path d="M298.225 297.897C294.549 300.571 292.399 304.416 290.729 308.655C289.017 309.203 287.477 310.187 286.261 311.51C286.005 311.79 285.75 312.183 285.924 312.519C286.074 312.806 286.447 312.875 286.771 312.912C287.55 312.993 288.336 313.074 289.115 313.155C287.445 318.167 285.912 323.352 282.958 327.585C280.993 330.379 278.433 332.702 275.461 334.385C274.651 334.847 273.814 335.261 272.956 335.625C269.79 335.868 266.685 336.128 263.64 336.404C262.474 336.51 261.317 336.618 260.169 336.729C259.215 336.816 258.274 336.909 257.34 336.997C257.333 336.654 257.333 336.311 257.34 335.968C257.537 326.836 260.895 318.055 266.843 311.123C267.123 310.799 267.41 310.481 267.703 310.163C270.716 306.944 274.259 304.267 278.178 302.247C284.353 299.036 291.275 297.534 298.225 297.897Z" fill="#7C3AED"/>
<path d="M261.247 333.531L260.53 335.65L260.169 336.729C259.215 336.816 258.274 336.909 257.34 336.997L257.171 337.015C256.137 337.121 255.109 337.227 254.081 337.333C253.813 337.022 253.545 336.704 253.283 336.38C246.778 328.501 243.656 318.368 244.599 308.194C245.541 298.02 250.471 288.633 258.312 282.083C257.489 286.39 258.449 290.517 260.026 294.612C259.857 294.68 259.695 294.749 259.539 294.824C258.333 295.392 257.249 296.19 256.349 297.174C256.093 297.454 255.838 297.847 256.012 298.183C256.162 298.47 256.536 298.539 256.86 298.576C257.639 298.657 258.424 298.738 259.203 298.819C259.826 298.888 260.449 298.95 261.072 299.019C261.365 299.05 261.658 299.081 261.951 299.112C261.995 299.206 262.032 299.293 262.076 299.386C263.852 303.238 265.765 307.109 266.843 311.123C267.113 312.13 267.325 313.152 267.479 314.184C267.958 317.67 267.647 321.219 266.569 324.568C265.49 327.917 263.671 330.981 261.247 333.531Z" fill="#7C3AED"/>
<path d="M323.973 243.127C318.608 232.66 310.297 223.854 300.522 217.382C290.716 210.92 279.463 206.984 267.767 205.926C266.234 205.787 264.697 205.705 263.156 205.681C261.336 205.654 233.951 213.555 224.778 220.006C215.609 226.379 208.067 234.818 202.76 244.644C197.462 254.522 194.856 265.622 195.203 276.827C195.658 288.099 198.799 299.1 204.366 308.912C209.856 318.692 217.652 326.983 227.076 333.063C236.634 339.163 246.235 355.337 257.52 355.908C268.89 356.483 281.857 341.226 292.227 336.593C302.597 331.922 311.562 324.614 318.229 315.398C324.707 306.366 328.898 295.897 330.442 284.888C332.046 273.617 331.299 261.993 327.45 251.22C326.463 248.452 325.301 245.749 323.973 243.127C322.864 240.942 319.613 240.138 317.578 241.45C316.53 242.096 315.771 243.121 315.459 244.312C315.146 245.503 315.305 246.769 315.902 247.846C316.553 249.129 317.159 250.433 317.718 251.759L317.247 250.642C319.366 255.738 320.807 261.09 321.532 266.56L321.366 265.318C322.137 271.253 322.124 277.264 321.324 283.196L321.491 281.953C320.683 287.884 319.101 293.683 316.784 299.202L317.255 298.086C316.063 300.902 314.673 303.63 313.097 306.25C312.298 307.574 311.451 308.866 310.554 310.128C310.161 310.681 309.755 311.225 309.346 311.768C308.812 312.476 310.073 310.843 309.522 311.538C309.428 311.656 309.335 311.774 309.24 311.892C308.957 312.246 308.67 312.597 308.379 312.944C306.436 315.263 304.316 317.427 302.038 319.417C301.47 319.912 300.893 320.396 300.307 320.87C300.015 321.105 299.726 321.351 299.421 321.571C299.433 321.562 300.406 320.823 299.83 321.252C299.649 321.387 299.469 321.524 299.288 321.658C298.079 322.554 296.838 323.404 295.565 324.209C292.634 326.056 289.559 327.664 286.37 329.017L287.486 328.545C281.985 330.862 276.203 332.444 270.289 333.252L271.532 333.085C265.621 333.884 259.63 333.895 253.716 333.117L254.958 333.284C249.584 332.562 244.326 331.14 239.32 329.055L240.436 329.526C237.537 328.302 234.741 326.844 232.076 325.169C230.757 324.338 229.473 323.455 228.223 322.521C228.044 322.388 227.868 322.253 227.69 322.119C227.119 321.688 228.1 322.437 228.108 322.442C227.776 322.204 227.457 321.949 227.151 321.678C226.547 321.187 225.953 320.683 225.368 320.169C223.028 318.107 220.842 315.876 218.829 313.494C218.325 312.898 217.832 312.293 217.35 311.679C217.141 311.414 216.76 310.875 217.602 312.009C217.491 311.86 217.376 311.714 217.264 311.565C216.995 311.209 216.73 310.85 216.469 310.488C215.554 309.222 214.684 307.924 213.859 306.595C211.996 303.587 210.37 300.439 208.995 297.178L209.466 298.295C207.218 292.943 205.68 287.319 204.892 281.567L205.059 282.81C204.349 277.508 204.339 272.135 205.029 266.831L204.862 268.073C205.57 262.937 206.952 257.915 208.972 253.14L208.5 254.256C209.771 251.267 211.27 248.379 212.984 245.62C213.842 244.239 214.752 242.891 215.712 241.578C215.93 241.279 216.151 240.983 216.374 240.688C216.576 240.421 217.131 239.757 216.184 240.93C216.277 240.815 216.366 240.696 216.458 240.58C216.985 239.912 217.525 239.255 218.078 238.608C220.17 236.158 222.437 233.862 224.86 231.738C225.472 231.202 226.094 230.676 226.726 230.162C227.013 229.928 227.302 229.697 227.593 229.468C227.709 229.377 227.827 229.287 227.943 229.195C226.698 230.186 227.597 229.465 227.879 229.253C229.181 228.277 230.518 227.35 231.89 226.472C234.939 224.522 238.146 222.831 241.478 221.418L240.361 221.89C245.197 219.859 266.622 215.065 270.519 215.588L269.276 215.421C275.004 216.221 280.602 217.768 285.927 220.023L284.811 219.551C287.509 220.698 290.132 222.015 292.662 223.497C293.927 224.238 295.166 225.02 296.381 225.842C296.956 226.231 297.525 226.629 298.087 227.035C298.369 227.239 298.648 227.444 298.926 227.652C299.081 227.767 299.234 227.884 299.388 228C300.036 228.485 298.496 227.296 299.175 227.833C301.447 229.619 303.605 231.545 305.636 233.601C306.633 234.617 307.597 235.665 308.525 236.746C309.002 237.3 309.468 237.863 309.925 238.433C310.152 238.717 310.926 239.743 309.978 238.486C310.21 238.793 310.444 239.098 310.672 239.408C312.642 242.074 314.39 244.896 315.902 247.846C317.019 250.026 320.256 250.839 322.296 249.523C323.345 248.878 324.105 247.853 324.417 246.661C324.729 245.47 324.57 244.204 323.973 243.127Z" fill="#3F3D56"/>
<path d="M269.515 319.417C269.033 319.439 268.555 319.312 268.147 319.054C267.739 318.795 267.42 318.418 267.234 317.972C267.048 317.526 267.003 317.034 267.105 316.562C267.208 316.09 267.453 315.661 267.808 315.333C267.867 315.097 267.91 314.928 267.969 314.691C267.948 314.64 267.927 314.589 267.905 314.537C265.737 309.365 251.899 323.783 251.301 328.644C251.038 330.792 251.149 332.97 251.63 335.081C247.147 325.302 244.82 314.672 244.805 303.914C244.804 301.214 244.954 298.517 245.254 295.834C245.502 293.635 245.846 291.451 246.287 289.283C248.689 277.519 253.847 266.493 261.337 257.11C265.62 257.349 269.374 256.696 269.737 248.393C269.801 246.916 270.897 245.637 271.138 244.182C270.729 244.235 270.313 244.269 269.905 244.296C269.777 244.302 269.643 244.309 269.516 244.316L269.468 244.318C269.018 244.338 268.573 244.228 268.184 244.001C267.796 243.773 267.482 243.439 267.279 243.037C267.077 242.635 266.995 242.183 267.043 241.736C267.091 241.288 267.268 240.864 267.551 240.515C267.728 240.298 267.904 240.08 268.081 239.863C268.349 239.528 268.624 239.199 268.892 238.864C268.923 238.832 268.952 238.799 268.979 238.764C269.288 238.381 269.596 238.006 269.905 237.624C269.342 236.75 268.585 236.018 267.692 235.485C264.602 233.674 260.338 234.928 258.106 237.724C255.867 240.52 255.444 244.443 256.222 247.937C256.987 250.909 258.252 253.73 259.963 256.278C259.795 256.493 259.621 256.701 259.453 256.915C256.389 260.856 253.719 265.087 251.481 269.549C252.114 264.6 244.369 246.731 241.374 242.946C237.777 238.399 230.4 240.383 229.766 246.147C229.76 246.202 229.754 246.258 229.748 246.314C230.193 246.565 230.628 246.831 231.054 247.113C231.59 247.471 232.004 247.982 232.244 248.58C232.484 249.177 232.538 249.833 232.399 250.462C232.26 251.09 231.934 251.662 231.464 252.102C230.994 252.543 230.403 252.831 229.766 252.929L229.701 252.939C223.746 261.443 242.836 283.577 247.614 278.608C245.365 284.983 243.954 291.623 243.417 298.362C243.113 302.338 243.131 306.331 243.471 310.304L243.451 310.163C242.389 301.511 224.176 288.645 218.857 289.717C215.793 290.334 212.775 290.194 213.241 293.285C213.248 293.335 213.256 293.384 213.263 293.433C214.089 293.77 214.892 294.157 215.67 294.593C216.115 294.844 216.55 295.111 216.976 295.393C217.511 295.75 217.926 296.262 218.166 296.859C218.406 297.457 218.46 298.113 218.321 298.741C218.181 299.37 217.856 299.942 217.386 300.382C216.916 300.822 216.324 301.11 215.688 301.208L215.623 301.218C215.576 301.225 215.536 301.232 215.489 301.239C212.778 310.567 232.88 325.622 245.1 320.832H245.107C246.318 326.096 248.072 331.219 250.343 336.12H269.046C269.113 335.913 269.174 335.698 269.234 335.49C267.503 335.599 265.765 335.495 264.059 335.182C265.446 333.478 266.834 331.762 268.222 330.059C268.253 330.027 268.282 329.993 268.309 329.958C269.013 329.086 269.724 328.221 270.427 327.35L270.428 327.349C270.465 324.677 270.159 322.011 269.516 319.417L269.515 319.417ZM248.097 277.273L248.107 277.26L248.097 277.287V277.273ZM243.954 314.629L243.793 314.267C243.799 314.006 243.799 313.744 243.793 313.476C243.793 313.402 243.779 313.329 243.779 313.255C243.84 313.717 243.893 314.18 243.96 314.643L243.954 314.629Z" fill="#3F3D56"/>
<path d="M59.3553 280.488C63.141 280.488 66.21 277.418 66.21 273.631C66.21 269.845 63.141 266.775 59.3553 266.775C55.5695 266.775 52.5005 269.845 52.5005 273.631C52.5005 277.418 55.5695 280.488 59.3553 280.488Z" fill="#3F3D56"/>
<path d="M141.613 355.285C145.398 355.285 148.467 352.215 148.467 348.428C148.467 344.641 145.398 341.572 141.613 341.572C137.827 341.572 134.758 344.641 134.758 348.428C134.758 352.215 137.827 355.285 141.613 355.285Z" fill="#3F3D56"/>
<path d="M453.816 355.285C457.602 355.285 460.671 352.215 460.671 348.428C460.671 344.641 457.602 341.572 453.816 341.572C450.03 341.572 446.961 344.641 446.961 348.428C446.961 352.215 450.03 355.285 453.816 355.285Z" fill="#3F3D56"/>
<path d="M470.641 268.022C474.427 268.022 477.496 264.952 477.496 261.165C477.496 257.379 474.427 254.309 470.641 254.309C466.856 254.309 463.787 257.379 463.787 261.165C463.787 264.952 466.856 268.022 470.641 268.022Z" fill="#3F3D56"/>
<path d="M450.7 204.444C454.486 204.444 457.555 201.375 457.555 197.588C457.555 193.801 454.486 190.732 450.7 190.732C446.914 190.732 443.845 193.801 443.845 197.588C443.845 201.375 446.914 204.444 450.7 204.444Z" fill="#3F3D56"/>
<path d="M164.669 261.165C164.665 262.917 163.988 264.599 162.778 265.865C161.568 267.131 159.918 267.883 158.169 267.966C156.42 268.049 154.706 267.456 153.382 266.31C152.058 265.164 151.225 263.553 151.055 261.81C150.886 260.066 151.393 258.325 152.472 256.945C153.55 255.566 155.118 254.654 156.85 254.398C158.582 254.142 160.346 254.562 161.778 255.571C163.209 256.58 164.197 258.101 164.539 259.819C164.626 260.262 164.67 260.713 164.669 261.165Z" fill="#3F3D56"/>
<path d="M301.765 224.39C305.55 224.39 308.619 221.321 308.619 217.534C308.619 213.747 305.55 210.677 301.765 210.677C297.979 210.677 294.91 213.747 294.91 217.534C294.91 221.321 297.979 224.39 301.765 224.39Z" fill="#3F3D56"/>
<path d="M233.84 217.534C233.836 219.285 233.159 220.968 231.949 222.234C230.739 223.5 229.089 224.252 227.34 224.335C225.591 224.417 223.877 223.824 222.553 222.679C221.229 221.533 220.396 219.921 220.226 218.178C220.057 216.435 220.564 214.693 221.643 213.314C222.721 211.934 224.289 211.022 226.021 210.766C227.753 210.511 229.517 210.931 230.949 211.94C232.38 212.949 233.368 214.47 233.709 216.187C233.797 216.631 233.841 217.082 233.84 217.534Z" fill="#3F3D56"/>
<path d="M145.352 197.588C145.347 199.339 144.67 201.022 143.46 202.288C142.25 203.554 140.6 204.306 138.851 204.389C137.102 204.472 135.388 203.879 134.064 202.733C132.74 201.587 131.907 199.975 131.738 198.232C131.568 196.489 132.075 194.748 133.154 193.368C134.232 191.988 135.8 191.076 137.532 190.82C139.264 190.565 141.029 190.985 142.46 191.994C143.891 193.003 144.879 194.524 145.221 196.242C145.309 196.685 145.352 197.136 145.352 197.588Z" fill="#3F3D56"/>
<path d="M373.428 282.981C377.214 282.981 380.283 279.911 380.283 276.125C380.283 272.338 377.214 269.268 373.428 269.268C369.642 269.268 366.573 272.338 366.573 276.125C366.573 279.911 369.642 282.981 373.428 282.981Z" fill="#3F3D56"/>
<path d="M265.621 220.65C271.128 220.65 275.592 216.185 275.592 210.677C275.592 205.17 271.128 200.705 265.621 200.705C260.115 200.705 255.651 205.17 255.651 210.677C255.651 216.185 260.115 220.65 265.621 220.65Z" fill="#3F3D56"/>
<path d="M535.258 355.808L0.741981 356C0.644542 356 0.548055 355.981 0.458033 355.943C0.368011 355.906 0.286221 355.851 0.217321 355.783C0.148421 355.714 0.0937603 355.632 0.056472 355.542C0.0191838 355.452 0 355.355 0 355.258C0 355.16 0.0191838 355.064 0.056472 354.974C0.0937603 354.884 0.148421 354.802 0.217321 354.733C0.286221 354.664 0.368011 354.609 0.458033 354.572C0.548055 354.535 0.644542 354.516 0.741981 354.516L535.258 354.324C535.454 354.325 535.643 354.403 535.781 354.542C535.92 354.681 535.998 354.87 535.998 355.066C535.998 355.263 535.92 355.451 535.781 355.59C535.643 355.729 535.454 355.808 535.258 355.808Z" fill="#CACACA"/>
</g>
<defs>
<clipPath id="clip0_127_3">
<rect width="536" height="356" fill="white"/>
</clipPath>
</defs>
</svg>
