<svg width="500" height="466" viewBox="0 0 500 466" fill="none" xmlns="http://www.w3.org/2000/svg">
<g clip-path="url(#clip0_4_108)">
<path d="M169.257 209.55C148.53 209.55 128.268 203.405 111.034 191.892C93.7999 180.379 80.3676 164.016 72.4356 144.87C64.5036 125.725 62.4283 104.659 66.472 84.3343C70.5156 64.0099 80.4968 45.3409 95.1531 30.6878C109.809 16.0348 128.483 6.05596 148.812 2.0132C169.141 -2.02956 190.212 0.0453393 209.362 7.9755C228.511 15.9057 244.878 29.3349 256.394 46.5651C267.909 63.7952 274.056 84.0523 274.056 104.775C274.024 132.553 262.973 159.185 243.326 178.827C223.679 198.469 197.042 209.518 169.257 209.55ZM169.257 1.64999C148.856 1.64999 128.914 7.69816 111.951 19.0297C94.9882 30.3612 81.7674 46.4671 73.9604 65.3107C66.1533 84.1543 64.1106 104.889 68.0906 124.893C72.0706 144.898 81.8946 163.273 96.3201 177.695C110.746 192.117 129.125 201.939 149.134 205.918C169.143 209.897 189.882 207.855 208.73 200.05C227.578 192.245 243.688 179.027 255.022 162.068C266.356 145.109 272.405 125.171 272.405 104.775C272.405 77.4244 261.538 51.1942 242.194 31.8546C222.85 12.5149 196.614 1.64999 169.257 1.64999Z" fill="#F2F2F2"/>
<path d="M103.54 108.531C100.628 97.9156 124.117 88.8127 130.285 97.3613C131.143 96.1459 134.312 95.4077 135.767 95.7805C137.19 96.2531 138.506 97.0033 139.638 97.9876C141.278 99.2478 142.979 100.553 143.986 102.365C145 104.169 145.157 106.63 143.792 108.195C142.71 109.441 139.518 110.246 137.892 110.574C136.759 110.805 135.804 110.992 134.984 111.126C134.239 110.052 133.895 108.751 134.014 107.45C133.462 107.822 132.999 108.312 132.659 108.885C132.318 109.457 132.109 110.098 132.045 110.76C132.023 111.036 141.211 144.836 141.211 144.836C140.107 145.464 138.946 145.986 137.743 146.394C135.364 142.759 133.541 138.788 132.336 134.613C132.059 137.405 132.094 140.218 132.44 143.002C132.625 144.563 132.889 146.113 133.231 147.647C122.312 150.003 105.89 149.228 98.7449 139.207L98.7413 139.082C98.7357 138.686 98.5928 138.305 98.3369 138.003C98.0811 137.702 97.7282 137.498 97.3388 137.428C96.9494 137.358 96.5477 137.425 96.2024 137.618C95.8571 137.811 95.5899 138.119 95.4463 138.487C95.273 138.93 95.1134 139.312 94.9711 139.617C92.8904 132.175 95.5827 123.563 103.54 108.531Z" fill="#2F2E41"/>
<path d="M155.032 448.07L163.167 448.002L166.769 415.898L154.762 416L155.032 448.07Z" fill="#A0616A"/>
<path d="M179.496 458.026L166.503 449.216L166.454 443.395L163.66 443.582L154.999 444.179L152.876 444.32L151.335 464.891L157.438 464.836L158.478 459.068L161.309 464.807L177.484 464.672C178.259 464.665 179.012 464.411 179.633 463.946C180.254 463.482 180.71 462.831 180.934 462.089C181.159 461.347 181.141 460.553 180.882 459.822C180.623 459.091 180.138 458.462 179.496 458.026Z" fill="#2F2E41"/>
<path d="M73.9128 444.899L81.9559 446.121L90.6038 414.995L78.7327 413.192L73.9128 444.899Z" fill="#A0616A"/>
<path d="M96.4885 458.608L85.0573 447.848L85.9321 442.094L83.1436 441.836L74.4977 441.052L72.3788 440.855L67.5943 460.921L73.6289 461.834L75.5705 456.304L77.4561 462.419L93.4475 464.85C94.2141 464.966 94.9979 464.835 95.6843 464.474C96.3708 464.114 96.9242 463.544 97.2637 462.847C97.6032 462.15 97.7111 461.363 97.5716 460.6C97.4322 459.838 97.0527 459.14 96.4885 458.608Z" fill="#2F2E41"/>
<path d="M151.29 223.784L174.357 265.087C174.357 265.087 173.394 350.033 176.46 353.183C179.525 356.334 182.301 359.16 179.525 359.134C176.75 359.109 173.39 365.861 173.39 365.861L167.649 429.686H153.173C153.173 429.686 142.987 392.047 145.158 370.583L128.009 292.145C128.009 292.145 115.689 366.324 113.468 368.543C111.248 370.763 109.909 370.748 112.243 372.975C114.578 375.203 112.243 380.242 112.243 380.242L87.9025 430.749L74.6995 429.084C74.6995 429.084 76.9884 387.851 84.9591 370.15V286.5C84.3587 293.672 112.44 221.081 95.2681 226.529C100.701 224.806 151.29 223.784 151.29 223.784Z" fill="#2F2E41"/>
<path d="M131.685 145.028L108.237 140.055L103.581 149.424L87.9025 158.499C87.9025 158.499 98.0088 199.812 97.9511 205.622C97.8047 220.374 74.1959 253.443 92.0284 250.899C109.861 248.355 113.483 237.699 119.208 239.384C142.826 246.335 170.896 245.598 161.344 236.049C151.793 226.5 153.927 162.932 153.927 162.932L135.426 154.191L131.685 145.028Z" fill="#7C3AED"/>
<path d="M87.4591 295.058C88.4012 293.935 88.8678 292.488 88.7595 291.026C88.6513 289.565 87.9767 288.203 86.8794 287.23C86.6532 287.036 86.4114 286.861 86.1564 286.707L90.0769 267.47L81.0135 262.047L78.4925 288.979C77.9348 290.086 77.7593 291.347 77.9933 292.564C78.2273 293.781 78.8578 294.886 79.7862 295.707C80.8623 296.641 82.2652 297.109 83.6863 297.008C85.1074 296.907 86.4303 296.246 87.3639 295.171C87.3962 295.134 87.4279 295.096 87.4591 295.058Z" fill="#A0616A"/>
<path d="M82.4528 205.047L83.2068 169.993C83.2541 167.789 83.742 165.617 84.6418 163.605C85.5416 161.593 86.835 159.781 88.4459 158.277C90.0569 156.772 91.9527 155.605 94.0217 154.844C96.0907 154.083 98.2911 153.744 100.493 153.846C107.658 154.181 105.749 157.043 107.652 163.957C110.744 175.195 111.934 181.692 111.188 183.265C110.935 183.798 110.669 184.308 110.413 184.799C109.094 187.328 108.141 189.156 110.563 190.906C111.52 191.54 112.564 192.033 113.661 192.373C114.754 192.761 115.544 193.041 115.6 193.659C115.653 194.258 114.978 194.878 113.108 195.947C108.087 198.82 103.733 215.991 103.691 216.16L89.1213 277.263L77.5149 276.687L82.4528 205.047Z" fill="#7C3AED"/>
<path d="M228.495 252.941C227.044 252.734 225.73 251.969 224.834 250.809C223.938 249.649 223.529 248.185 223.696 246.729C223.735 246.433 223.798 246.141 223.885 245.856L208.113 234.16L211.234 224.071L231.106 242.429C232.261 242.88 233.233 243.7 233.873 244.762C234.512 245.824 234.781 247.068 234.639 248.299C234.551 248.999 234.327 249.675 233.978 250.288C233.629 250.901 233.163 251.439 232.606 251.872C232.049 252.305 231.412 252.624 230.732 252.811C230.052 252.997 229.341 253.048 228.642 252.961C228.593 252.955 228.544 252.948 228.495 252.941Z" fill="#A0616A"/>
<path d="M223.619 232.628L215.368 240.809L163.698 205.072C163.553 204.974 148.84 195.105 143.184 196.321C141.078 196.774 140.161 196.763 139.801 196.283C139.43 195.786 139.83 195.049 140.384 194.03C140.974 193.045 141.42 191.981 141.71 190.87C142.342 187.949 140.412 187.226 137.741 186.225C137.222 186.031 136.683 185.829 136.139 185.601C134.532 184.929 131.076 179.3 125.868 168.872C122.664 162.456 119.331 161.601 124.439 156.567C126.009 155.02 127.873 153.803 129.921 152.987C131.969 152.172 134.16 151.774 136.364 151.818C138.568 151.862 140.741 152.346 142.755 153.242C144.769 154.138 146.584 155.429 148.091 157.037L172.076 182.618L223.619 232.628Z" fill="#7C3AED"/>
<path d="M121.792 139.703C132.358 139.703 140.923 131.14 140.923 120.577C140.923 110.014 132.358 101.451 121.792 101.451C111.227 101.451 102.662 110.014 102.662 120.577C102.662 131.14 111.227 139.703 121.792 139.703Z" fill="#A0616A"/>
<path d="M93.0992 110.022C90.1869 99.4069 113.676 90.3039 119.844 98.8526C120.701 97.6372 123.871 96.899 125.326 97.2718C126.749 97.7444 128.065 98.4946 129.196 99.4789C130.837 100.739 132.537 102.044 133.544 103.856C134.559 105.66 134.715 108.121 133.35 109.687C132.269 110.932 129.077 111.737 127.451 112.065C126.317 112.296 125.363 112.483 124.542 112.617C123.797 111.544 123.454 110.242 123.573 108.941C123.021 109.313 122.558 109.803 122.217 110.376C121.877 110.948 121.667 111.589 121.604 112.252C121.582 112.528 130.77 146.327 130.77 146.327C129.666 146.955 128.505 147.477 127.302 147.886C124.922 144.25 123.1 140.279 121.895 136.105C121.618 138.896 121.653 141.709 121.999 144.493C122.183 146.054 122.447 147.604 122.79 149.138C111.871 151.495 95.4484 150.719 88.3036 140.698L88.3 140.573C88.2944 140.178 88.1515 139.796 87.8956 139.495C87.6398 139.193 87.2869 138.989 86.8975 138.919C86.5081 138.849 86.1064 138.916 85.7612 139.109C85.4159 139.303 85.1486 139.61 85.0051 139.979C84.8317 140.421 84.6722 140.803 84.5298 141.108C82.4491 133.666 85.1414 125.054 93.0992 110.022Z" fill="#2F2E41"/>
<path d="M44.7737 451.408C44.3901 451.426 44.0104 451.325 43.686 451.12C43.3616 450.914 43.1082 450.614 42.9601 450.26C42.8119 449.906 42.7763 449.515 42.8579 449.14C42.9396 448.765 43.1346 448.424 43.4165 448.163L43.5448 447.653C43.5279 447.612 43.5109 447.571 43.4939 447.531C43.1074 446.618 42.46 445.84 41.6327 445.294C40.8055 444.749 39.8354 444.459 38.8443 444.463C37.8532 444.467 36.8852 444.763 36.0621 445.315C35.2389 445.867 34.5972 446.65 34.2176 447.565C32.7005 451.218 30.7688 454.878 30.2932 458.74C30.0837 460.448 30.1721 462.179 30.5544 463.856C26.9909 456.084 25.1405 447.638 25.1286 439.089C25.1279 436.943 25.2471 434.8 25.4857 432.668C25.683 430.92 25.9566 429.185 26.3066 427.462C28.2165 418.114 32.3172 409.352 38.2718 401.895C41.1539 400.323 43.4847 397.906 44.9501 394.968C45.481 393.912 45.8561 392.785 46.064 391.622C45.7389 391.665 44.8382 386.714 45.0834 386.411C44.6303 385.723 43.8194 385.382 43.3245 384.711C40.8635 381.375 37.473 381.957 35.7029 386.491C31.9217 388.399 31.8851 391.563 34.2052 394.606C35.6813 396.542 35.8841 399.162 37.1792 401.235C37.046 401.405 36.9074 401.57 36.7742 401.741C34.3385 404.872 32.2156 408.235 30.4359 411.78C30.8687 407.808 30.3522 403.79 28.9288 400.057C27.4862 396.578 24.7823 393.648 22.4012 390.64C21.7714 389.832 20.9162 389.229 19.9436 388.906C18.971 388.584 17.9247 388.558 16.937 388.83C15.9492 389.102 15.0644 389.661 14.3943 390.436C13.7242 391.211 13.299 392.167 13.1723 393.183C13.1674 393.228 13.1627 393.272 13.158 393.316C13.5117 393.516 13.8579 393.728 14.1966 393.952C14.6222 394.236 14.9519 394.642 15.1426 395.117C15.3333 395.592 15.3761 396.113 15.2654 396.613C15.1547 397.112 14.8957 397.567 14.5222 397.916C14.1488 398.266 13.6783 398.495 13.1725 398.573L13.1207 398.581C13.2467 399.855 13.4694 401.118 13.7869 402.359C10.7323 414.17 17.3271 418.471 26.7436 418.664C26.9514 418.771 27.154 418.878 27.3619 418.979C25.5739 424.045 24.4523 429.322 24.0254 434.677C23.7837 437.836 23.798 441.01 24.0681 444.167L24.0521 444.055C23.3698 440.544 21.4967 437.377 18.7489 435.087C14.6679 431.735 8.90211 430.501 4.49938 427.807C4.03148 427.507 3.4874 427.346 2.93136 427.345C2.37531 427.344 1.83048 427.501 1.36111 427.799C0.891745 428.097 0.517435 428.523 0.282313 429.027C0.0471917 429.531 -0.0389359 430.091 0.0341125 430.643L0.0521181 430.76C0.708422 431.027 1.34745 431.335 1.96545 431.682C2.31912 431.882 2.66533 432.093 3.00406 432.317C3.4296 432.601 3.75933 433.008 3.95005 433.482C4.14077 433.957 4.18356 434.479 4.07286 434.978C3.96216 435.478 3.70313 435.932 3.32967 436.282C2.95621 436.632 2.48573 436.861 1.97993 436.939L1.9281 436.947C1.8908 436.952 1.85878 436.957 1.82155 436.963C2.94296 439.64 4.5169 442.104 6.47441 444.247C8.38441 454.557 16.5879 455.535 25.3631 452.533H25.3685C26.3313 456.716 27.7263 460.787 29.531 464.682H44.401C44.4544 464.517 44.5023 464.346 44.5503 464.181C43.1739 464.267 41.7921 464.185 40.4357 463.936C41.539 462.582 42.6422 461.218 43.7455 459.865C43.7701 459.839 43.7933 459.813 43.8148 459.785C44.3744 459.092 44.9394 458.405 45.499 457.712L45.4993 457.711C45.5292 455.588 45.2849 453.469 44.7737 451.408Z" fill="#F2F2F2"/>
<path d="M0.550807 465.018C0.550422 465.147 0.575552 465.275 0.624768 465.394C0.673984 465.514 0.74632 465.622 0.837587 465.713C0.928855 465.805 1.03726 465.877 1.15658 465.926C1.2759 465.975 1.40376 466 1.53283 466H210.544C210.805 466 211.055 465.897 211.239 465.712C211.423 465.528 211.526 465.279 211.526 465.018C211.526 464.758 211.423 464.508 211.239 464.324C211.055 464.14 210.805 464.037 210.544 464.037H1.53283C1.40377 464.036 1.27589 464.061 1.15658 464.11C1.03726 464.16 0.928854 464.232 0.837587 464.323C0.746321 464.414 0.673986 464.523 0.624768 464.642C0.575551 464.761 0.550427 464.889 0.550807 465.018Z" fill="#CCCCCC"/>
<path d="M457.271 47.1243H246.417C243.914 47.1243 241.436 47.6171 239.124 48.5746C236.812 49.5322 234.711 50.9357 232.941 52.705C231.171 54.4743 229.767 56.5748 228.81 58.8865C227.852 61.1982 227.359 63.6759 227.359 66.1781V384.47C227.359 389.523 229.367 394.37 232.941 397.943C236.515 401.516 241.363 403.524 246.417 403.524H457.271C462.326 403.524 467.173 401.516 470.748 397.943C474.322 394.37 476.33 389.523 476.33 384.47C504.3 276.301 505.161 170.14 476.33 66.1781C476.33 61.1247 474.322 56.2783 470.748 52.705C467.173 49.1317 462.326 47.1243 457.271 47.1243ZM252.822 359.425C252.822 360.243 252.497 361.028 251.918 361.606C251.34 362.185 250.555 362.51 249.737 362.51H241.761C240.943 362.51 240.158 362.185 239.58 361.606C239.001 361.028 238.676 360.243 238.676 359.425V351.451C238.676 350.633 239.001 349.849 239.58 349.27C240.158 348.692 240.943 348.367 241.761 348.367H249.737C250.555 348.367 251.34 348.692 251.918 349.27C252.497 349.849 252.822 350.633 252.822 351.451V359.425ZM252.822 327.957C252.822 328.775 252.497 329.56 251.918 330.138C251.34 330.717 250.555 331.042 249.737 331.042H241.761C240.943 331.042 240.158 330.717 239.58 330.138C239.001 329.56 238.676 328.775 238.676 327.957V319.984C238.676 319.578 238.756 319.177 238.911 318.803C239.066 318.429 239.293 318.089 239.58 317.802C239.866 317.516 240.206 317.289 240.581 317.134C240.955 316.979 241.356 316.899 241.761 316.899H249.737C250.142 316.899 250.543 316.979 250.917 317.134C251.292 317.289 251.632 317.516 251.918 317.802C252.205 318.089 252.432 318.429 252.587 318.803C252.742 319.177 252.822 319.578 252.822 319.984V327.957ZM252.822 296.489C252.822 297.307 252.497 298.092 251.918 298.67C251.34 299.249 250.555 299.574 249.737 299.574H241.761C240.943 299.574 240.158 299.249 239.58 298.67C239.001 298.092 238.676 297.307 238.676 296.489V288.516C238.676 287.698 239.001 286.913 239.58 286.335C240.158 285.756 240.943 285.431 241.761 285.431H249.737C250.555 285.431 251.34 285.756 251.918 286.335C252.497 286.913 252.822 287.698 252.822 288.516V296.489ZM252.822 265.021C252.822 265.84 252.497 266.624 251.918 267.203C251.34 267.781 250.555 268.106 249.737 268.106H241.761C240.943 268.106 240.158 267.781 239.58 267.203C239.001 266.624 238.676 265.84 238.676 265.021V257.048C238.676 256.23 239.001 255.445 239.58 254.867C240.158 254.288 240.943 253.963 241.761 253.963H249.737C250.555 253.963 251.34 254.288 251.918 254.867C252.497 255.445 252.822 256.23 252.822 257.048V265.021ZM252.822 233.554C252.822 234.372 252.497 235.156 251.918 235.735C251.34 236.313 250.555 236.638 249.737 236.638H241.761C240.943 236.638 240.158 236.313 239.58 235.735C239.001 235.156 238.676 234.372 238.676 233.554V225.58C238.676 224.762 239.001 223.977 239.58 223.399C240.158 222.82 240.943 222.495 241.761 222.495H249.737C250.555 222.495 251.34 222.82 251.918 223.399C252.497 223.977 252.822 224.762 252.822 225.58V233.554ZM252.822 202.086C252.822 202.904 252.497 203.688 251.918 204.267C251.34 204.845 250.555 205.17 249.737 205.17H241.761C240.943 205.17 240.158 204.845 239.58 204.267C239.001 203.688 238.676 202.904 238.676 202.086V194.112C238.676 193.294 239.001 192.51 239.58 191.931C240.158 191.353 240.943 191.028 241.761 191.028H249.737C250.555 191.028 251.34 191.353 251.918 191.931C252.497 192.51 252.822 193.294 252.822 194.112V202.086ZM252.822 170.618C252.822 171.436 252.497 172.221 251.918 172.799C251.34 173.378 250.555 173.703 249.737 173.703H241.761C240.943 173.703 240.158 173.378 239.58 172.799C239.001 172.221 238.676 171.436 238.676 170.618V162.644C238.676 161.826 239.001 161.042 239.58 160.463C240.158 159.885 240.943 159.56 241.761 159.56H249.737C250.555 159.56 251.34 159.885 251.918 160.463C252.497 161.042 252.822 161.826 252.822 162.644V170.618ZM252.822 139.15C252.822 139.968 252.497 140.753 251.918 141.331C251.34 141.91 250.555 142.235 249.737 142.235H241.761C240.943 142.235 240.158 141.91 239.58 141.331C239.001 140.753 238.676 139.968 238.676 139.15V131.177C238.676 130.359 239.001 129.574 239.58 128.996C240.158 128.417 240.943 128.092 241.761 128.092H249.737C250.555 128.092 251.34 128.417 251.918 128.996C252.497 129.574 252.822 130.359 252.822 131.177V139.15ZM252.822 107.682C252.822 108.5 252.497 109.285 251.918 109.864C251.34 110.442 250.555 110.767 249.737 110.767H241.761C240.943 110.767 240.158 110.442 239.58 109.864C239.001 109.285 238.676 108.5 238.676 107.682V99.7089C238.676 98.8908 239.001 98.1062 239.58 97.5277C240.158 96.9492 240.943 96.6242 241.761 96.6242H249.737C250.555 96.6242 251.34 96.9492 251.918 97.5277C252.497 98.1062 252.822 98.8908 252.822 99.7089V107.682Z" fill="#F2F2F2"/>
<path d="M251.022 64.0957H240.476C239.482 64.0957 238.676 64.9013 238.676 65.8951V76.4391C238.676 77.4329 239.482 78.2385 240.476 78.2385H251.022C252.016 78.2385 252.822 77.4329 252.822 76.4391V65.8951C252.822 64.9013 252.016 64.0957 251.022 64.0957Z" fill="#7C3AED"/>
<path d="M435.306 104.52H281.314C281.096 104.52 280.886 104.434 280.731 104.279C280.576 104.124 280.489 103.914 280.489 103.695C280.489 103.477 280.576 103.267 280.731 103.112C280.886 102.957 281.096 102.87 281.314 102.87H435.306C435.525 102.87 435.735 102.957 435.889 103.112C436.044 103.267 436.131 103.477 436.131 103.695C436.131 103.914 436.044 104.124 435.889 104.279C435.735 104.434 435.525 104.52 435.306 104.52Z" fill="#E6E6E6"/>
<path d="M435.306 73.4062H391.453C391.234 73.4062 391.024 73.3193 390.87 73.1645C390.715 73.0098 390.628 72.8 390.628 72.5812C390.628 72.3624 390.715 72.1525 390.87 71.9978C391.024 71.8431 391.234 71.7562 391.453 71.7562H435.306C435.525 71.7562 435.735 71.8431 435.889 71.9978C436.044 72.1525 436.131 72.3624 436.131 72.5812C436.131 72.8 436.044 73.0098 435.889 73.1645C435.735 73.3193 435.525 73.4062 435.306 73.4062Z" fill="#E6E6E6"/>
<path d="M435.306 135.635H281.314C281.096 135.635 280.886 135.548 280.731 135.393C280.576 135.238 280.489 135.029 280.489 134.81C280.489 134.591 280.576 134.381 280.731 134.226C280.886 134.072 281.096 133.985 281.314 133.985H435.306C435.525 133.985 435.735 134.072 435.889 134.226C436.044 134.381 436.131 134.591 436.131 134.81C436.131 135.029 436.044 135.238 435.889 135.393C435.735 135.548 435.525 135.635 435.306 135.635Z" fill="#E6E6E6"/>
<path d="M435.306 166.749H281.314C281.096 166.749 280.886 166.662 280.731 166.507C280.576 166.353 280.489 166.143 280.489 165.924C280.489 165.705 280.576 165.495 280.731 165.341C280.886 165.186 281.096 165.099 281.314 165.099H435.306C435.525 165.099 435.735 165.186 435.889 165.341C436.044 165.495 436.131 165.705 436.131 165.924C436.131 166.143 436.044 166.353 435.889 166.507C435.735 166.662 435.525 166.749 435.306 166.749Z" fill="#E6E6E6"/>
<path d="M435.306 197.863H281.314C281.096 197.863 280.886 197.776 280.731 197.622C280.576 197.467 280.489 197.257 280.489 197.038C280.489 196.82 280.576 196.61 280.731 196.455C280.886 196.3 281.096 196.213 281.314 196.213H435.306C435.525 196.213 435.735 196.3 435.889 196.455C436.044 196.61 436.131 196.82 436.131 197.038C436.131 197.257 436.044 197.467 435.889 197.622C435.735 197.776 435.525 197.863 435.306 197.863Z" fill="#E6E6E6"/>
<path d="M435.306 228.978H281.314C281.096 228.978 280.886 228.891 280.731 228.736C280.576 228.581 280.489 228.371 280.489 228.153C280.489 227.934 280.576 227.724 280.731 227.569C280.886 227.415 281.096 227.328 281.314 227.328H435.306C435.525 227.328 435.735 227.415 435.889 227.569C436.044 227.724 436.131 227.934 436.131 228.153C436.131 228.371 436.044 228.581 435.889 228.736C435.735 228.891 435.525 228.978 435.306 228.978Z" fill="#E6E6E6"/>
<path d="M435.306 260.092H281.314C281.096 260.092 280.886 260.005 280.731 259.85C280.576 259.695 280.489 259.485 280.489 259.267C280.489 259.048 280.576 258.838 280.731 258.683C280.886 258.529 281.096 258.442 281.314 258.442H435.306C435.525 258.442 435.735 258.529 435.889 258.683C436.044 258.838 436.131 259.048 436.131 259.267C436.131 259.485 436.044 259.695 435.889 259.85C435.735 260.005 435.525 260.092 435.306 260.092Z" fill="#E6E6E6"/>
<path d="M435.306 291.206H281.314C281.096 291.206 280.886 291.119 280.731 290.965C280.576 290.81 280.489 290.6 280.489 290.381C280.489 290.163 280.576 289.953 280.731 289.798C280.886 289.643 281.096 289.556 281.314 289.556H435.306C435.525 289.556 435.735 289.643 435.889 289.798C436.044 289.953 436.131 290.163 436.131 290.381C436.131 290.6 436.044 290.81 435.889 290.965C435.735 291.119 435.525 291.206 435.306 291.206Z" fill="#E6E6E6"/>
<path d="M435.306 322.32H281.314C281.096 322.32 280.886 322.233 280.731 322.079C280.576 321.924 280.489 321.714 280.489 321.495C280.489 321.276 280.576 321.067 280.731 320.912C280.886 320.757 281.096 320.67 281.314 320.67H435.306C435.525 320.67 435.735 320.757 435.889 320.912C436.044 321.067 436.131 321.276 436.131 321.495C436.131 321.714 436.044 321.924 435.889 322.079C435.735 322.233 435.525 322.32 435.306 322.32Z" fill="#E6E6E6"/>
<path d="M435.306 353.435H281.314C281.096 353.435 280.886 353.348 280.731 353.193C280.576 353.039 280.489 352.829 280.489 352.61C280.489 352.391 280.576 352.181 280.731 352.027C280.886 351.872 281.096 351.785 281.314 351.785H435.306C435.525 351.785 435.735 351.872 435.889 352.027C436.044 352.181 436.131 352.391 436.131 352.61C436.131 352.829 436.044 353.039 435.889 353.193C435.735 353.348 435.525 353.435 435.306 353.435Z" fill="#E6E6E6"/>
<path d="M412.477 97.2569H306.274C305.861 97.2576 305.451 97.1768 305.069 97.019C304.687 96.8613 304.339 96.6297 304.046 96.3376C303.754 96.0455 303.522 95.6986 303.363 95.3167C303.205 94.9348 303.123 94.5254 303.123 94.112C303.123 93.6986 303.205 93.2892 303.363 92.9073C303.522 92.5254 303.754 92.1785 304.046 91.8864C304.339 91.5943 304.687 91.3628 305.069 91.205C305.451 91.0473 305.861 90.9664 306.274 90.9671H412.477C413.31 90.9684 414.109 91.3004 414.698 91.89C415.286 92.4796 415.617 93.2788 415.617 94.112C415.617 94.9452 415.286 95.7444 414.698 96.334C414.109 96.9237 413.31 97.2556 412.477 97.2569Z" fill="#CCCCCC"/>
<path d="M412.477 128.371H306.274C305.44 128.371 304.64 128.04 304.05 127.45C303.46 126.86 303.128 126.06 303.128 125.226C303.128 124.392 303.46 123.592 304.05 123.002C304.64 122.413 305.44 122.081 306.274 122.081H412.477C413.311 122.081 414.111 122.413 414.701 123.002C415.291 123.592 415.622 124.392 415.622 125.226C415.622 126.06 415.291 126.86 414.701 127.45C414.111 128.04 413.311 128.371 412.477 128.371Z" fill="#CCCCCC"/>
<path d="M412.477 159.485H306.274C305.861 159.486 305.451 159.405 305.069 159.247C304.687 159.09 304.339 158.858 304.046 158.566C303.754 158.274 303.522 157.927 303.363 157.545C303.205 157.163 303.123 156.754 303.123 156.34C303.123 155.927 303.205 155.518 303.363 155.136C303.522 154.754 303.754 154.407 304.046 154.115C304.339 153.823 304.687 153.591 305.069 153.433C305.451 153.276 305.861 153.195 306.274 153.196H412.477C413.31 153.197 414.109 153.529 414.698 154.118C415.286 154.708 415.617 155.507 415.617 156.34C415.617 157.174 415.286 157.973 414.698 158.563C414.109 159.152 413.31 159.484 412.477 159.485Z" fill="#CCCCCC"/>
<path d="M412.477 190.6H306.274C305.44 190.6 304.64 190.268 304.05 189.679C303.46 189.089 303.128 188.289 303.128 187.455C303.128 186.621 303.46 185.821 304.05 185.231C304.64 184.641 305.44 184.31 306.274 184.31H412.477C413.311 184.31 414.111 184.641 414.701 185.231C415.291 185.821 415.622 186.621 415.622 187.455C415.622 188.289 415.291 189.089 414.701 189.679C414.111 190.268 413.311 190.6 412.477 190.6Z" fill="#CCCCCC"/>
<path d="M412.477 221.714H306.274C305.861 221.715 305.451 221.634 305.069 221.476C304.687 221.318 304.339 221.087 304.046 220.795C303.754 220.502 303.522 220.156 303.363 219.774C303.205 219.392 303.123 218.982 303.123 218.569C303.123 218.156 303.205 217.746 303.363 217.364C303.522 216.982 303.754 216.635 304.046 216.343C304.339 216.051 304.687 215.82 305.069 215.662C305.451 215.504 305.861 215.423 306.274 215.424H412.477C413.31 215.425 414.109 215.757 414.698 216.347C415.286 216.937 415.617 217.736 415.617 218.569C415.617 219.402 415.286 220.201 414.698 220.791C414.109 221.381 413.31 221.713 412.477 221.714Z" fill="#CCCCCC"/>
<path d="M412.477 252.828H306.274C305.861 252.829 305.451 252.748 305.069 252.59C304.687 252.432 304.339 252.201 304.046 251.909C303.754 251.617 303.522 251.27 303.363 250.888C303.205 250.506 303.123 250.097 303.123 249.683C303.123 249.27 303.205 248.86 303.363 248.479C303.522 248.097 303.754 247.75 304.046 247.458C304.339 247.166 304.687 246.934 305.069 246.776C305.451 246.618 305.861 246.538 306.274 246.538H412.477C413.31 246.54 414.109 246.872 414.698 247.461C415.286 248.051 415.617 248.85 415.617 249.683C415.617 250.516 415.286 251.316 414.698 251.905C414.109 252.495 413.31 252.827 412.477 252.828Z" fill="#CCCCCC"/>
<path d="M412.477 283.942H306.274C305.44 283.942 304.64 283.611 304.05 283.021C303.46 282.431 303.128 281.632 303.128 280.797C303.128 279.963 303.46 279.163 304.05 278.574C304.64 277.984 305.44 277.652 306.274 277.652H412.477C413.311 277.652 414.111 277.984 414.701 278.574C415.291 279.163 415.622 279.963 415.622 280.797C415.622 281.632 415.291 282.431 414.701 283.021C414.111 283.611 413.311 283.942 412.477 283.942Z" fill="#CCCCCC"/>
<path d="M412.477 315.057H306.274C305.861 315.057 305.451 314.977 305.069 314.819C304.687 314.661 304.339 314.429 304.046 314.137C303.754 313.845 303.522 313.498 303.363 313.116C303.205 312.735 303.123 312.325 303.123 311.912C303.123 311.498 303.205 311.089 303.363 310.707C303.522 310.325 303.754 309.978 304.046 309.686C304.339 309.394 304.687 309.162 305.069 309.005C305.451 308.847 305.861 308.766 306.274 308.767H412.477C413.31 308.768 414.109 309.1 414.698 309.69C415.286 310.279 415.617 311.079 415.617 311.912C415.617 312.745 415.286 313.544 414.698 314.134C414.109 314.723 413.31 315.055 412.477 315.057Z" fill="#CCCCCC"/>
<path d="M412.477 346.171H306.274C305.861 346.171 305.452 346.09 305.07 345.931C304.689 345.773 304.342 345.542 304.05 345.25C303.758 344.958 303.526 344.611 303.368 344.229C303.21 343.848 303.128 343.439 303.128 343.026C303.128 342.613 303.21 342.204 303.368 341.822C303.526 341.441 303.758 341.094 304.05 340.802C304.342 340.51 304.689 340.278 305.07 340.12C305.452 339.962 305.861 339.881 306.274 339.881H412.477C413.311 339.881 414.111 340.212 414.701 340.802C415.291 341.392 415.622 342.192 415.622 343.026C415.622 343.86 415.291 344.66 414.701 345.25C414.111 345.84 413.311 346.171 412.477 346.171Z" fill="#CCCCCC"/>
<path d="M478.698 66.1781C478.698 61.1247 476.69 56.2783 473.116 52.705C469.542 49.1317 464.694 47.1243 459.64 47.1243H246.338C254.962 47.1243 358.59 53.2168 424.609 60.907C435.616 62.1877 445.942 66.8945 454.127 74.3621C462.312 81.8297 467.943 91.6804 470.224 102.522C489.634 194.848 486.089 288.875 461.369 384.47C461.369 389.523 459.361 394.37 455.787 397.943C452.213 401.516 447.366 403.524 442.311 403.524H459.64C464.694 403.524 469.542 401.516 473.116 397.943C476.69 394.37 478.698 389.523 478.698 384.47C506.669 276.301 507.529 170.14 478.698 66.1781Z" fill="#E6E6E6"/>
<path d="M470.654 394.122L469.056 393.709C497.273 284.59 497.282 177.677 469.086 75.9372C466.151 70.6174 461.928 66.1183 456.805 62.8516C451.681 59.5848 445.82 57.6547 439.757 57.2378L355.204 51.2473L355.321 49.6013L439.874 55.5918C446.228 56.0291 452.369 58.0563 457.735 61.4871C463.1 64.9178 467.516 69.6421 470.578 75.2254L470.65 75.403C484.906 126.785 492.083 179.872 491.981 233.194C491.875 285.662 484.699 339.806 470.654 394.122Z" fill="white"/>
</g>
<defs>
<clipPath id="clip0_4_108">
<rect width="500" height="466" fill="white"/>
</clipPath>
</defs>
</svg>
